<?xml version="1.0" encoding="utf-8"?>
<!-- Svg Vector Icons : http://www.onlinewebfonts.com/icon -->
<!DOCTYPE svg PUBLIC "-//W3C//DTD SVG 1.1//EN" "http://www.w3.org/Graphics/SVG/1.1/DTD/svg11.dtd">
<svg version="1.1" xmlns="http://www.w3.org/2000/svg" xmlns:xlink="http://www.w3.org/1999/xlink"
    x="0px" y="0px" viewBox="0 0 1000 1000" enable-background="new 0 0 1000 1000"
    xml:space="preserve">
<metadata> Svg Vector Icons : http://www.onlinewebfonts.com/icon </metadata>
<g><g fill="4FC0D0" transform="translate(0.000000,511.000000) scale(0.100000,-0.100000)"><path d="M4964.8,4973.6c-288.7-79.2-516.1-268.3-649-546.8c-71.6-150.7-79.2-189.1-79.2-421.6c0-235.1,7.7-268.3,81.8-424.1c99.6-201.9,281.1-383.3,488-477.8c127.8-61.3,176.3-69,413.9-69c252.9,0,281.1,5.1,439.5,84.3c212.1,104.8,403.7,304.1,482.9,511c46,115,58.7,196.8,61.3,388.4c0,222.3-7.7,258.1-81.8,408.8c-140.5,283.6-365.4,472.7-659.2,546.8C5279.1,5022.1,5148.8,5022.1,4964.8,4973.6z"/><path d="M7537.8,3708.8l-69-51.1l-5.1-669.4l-7.7-669.5l-89.4-43.4c-48.6-23-230-107.3-401.2-189.1l-309.2-145.7l-378.2,288.7c-666.9,508.5-753.8,551.9-1471.7,753.8c-375.6,104.8-436.9,115-526.3,92c-115-33.2-209.5-99.7-286.2-207c-58.8-84.3-720.6-2422.3-769.1-2721.2c-38.3-240.2-17.9-490.6,53.7-684.7l56.2-148.2l-194.2-684.8c-204.4-720.5-288.7-932.6-799.8-2046.7c-275.9-597.9-314.3-705.2-314.3-896.8c0-130.3,10.2-161,76.7-237.6c94.5-104.7,270.8-158.4,403.7-120.1c242.7,71.5,495.7,311.7,774.2,730.8c562.1,850.8,863.6,1356.8,1039.9,1737.5c104.8,224.8,191.6,411.4,194.2,413.9c2.6,2.5,107.3-84.3,235.1-191.6c125.2-109.9,265.7-227.4,309.2-263.2l79.2-66.4l-89.4-853.4c-79.2-743.5-86.9-881.5-63.9-1073.1c28.1-240.2,69-345,176.3-442.1c81.8-76.7,281.1-127.8,390.9-104.7c171.2,38.3,329.6,242.7,419,549.3c23,76.7,130.3,590.2,235.1,1137c145.6,746.1,194.2,1050.1,196.7,1213.7c0,360.3-7.7,373-702.7,1068l-605.5,605.6l178.9,741c99.6,408.8,183.9,746.1,189.1,751.2s150.7-94.5,324.5-222.3c390.9-286.2,462.5-327,615.8-362.8c196.8-43.4,296.4-10.2,672,219.8c191.6,117.5,357.7,214.6,370.5,214.6c12.8,0,23-1213.7,23-2882.2v-2884.8l58.8-53.6c79.2-74.1,184-71.5,260.6,7.7l63.9,61.3v3010v3012.5l74.1,43.4c130.3,76.7,360.3,301.5,413.9,403.7c122.7,245.3-15.3,539.1-286.2,610.7c-56.2,15.3-120.1,25.6-145.6,20.4c-40.9-7.7-43.4,40.9-56.2,587.7c-12.8,590.3-12.8,597.9-74.1,646.5C7701.3,3777.8,7619.6,3775.2,7537.8,3708.8z"/><path d="M3071.4,2934.6c-311.7-89.4-590.2-324.5-891.7-751.2C1699.3,1503.7,1515.4,939,1666.1,606.9c94.5-207,355.2-390.9,715.4-498.3c337.3-102.2,618.3-15.3,743.5,230c63.9,125.2,587.7,2087.5,587.7,2197.4c0,112.4-92,301.5-181.4,362.8C3447.1,2962.7,3222.2,2978,3071.4,2934.6z"/></g></g>
</svg>