<?xml version="1.0" encoding="utf-8"?>
<!-- Svg Vector Icons : http://www.onlinewebfonts.com/icon -->
<!DOCTYPE svg PUBLIC "-//W3C//DTD SVG 1.1//EN" "http://www.w3.org/Graphics/SVG/1.1/DTD/svg11.dtd">
<svg version="1.1" xmlns="http://www.w3.org/2000/svg" xmlns:xlink="http://www.w3.org/1999/xlink" x="0px" y="0px" viewBox="0 0 1000 1000" enable-background="new 0 0 1000 1000" xml:space="preserve">
<metadata> Svg Vector Icons : http://www.onlinewebfonts.com/icon </metadata>
<g><g transform="matrix(1 0 0 -1 0 1952)"><path d="M956.6,1864.2c-14.3,0-63.2-1.8-65.9-1.4c0,0-158.6-31.6-345.9-31.6c-196.5,0-435.6,31.6-435.6,31.6c-2.7-0.3-51.7,1.4-65.9,1.4c-16.2,0-33.3-13.2-33.3-29.4v-757.3l45.1-37.6l49.3,37.6l-2.6,434.6c0,0,4.8,6.6,13.2,11.1c0,0,197.8,29.5,412.7,25.5c0,0,157.5-5.1,357.3-26.8c8.5-4.4,13.2-11.1,13.2-11.1l-2.6-433.3l49.3-37.6l45.1,37.6v757.3C990,1851,972.9,1864.2,956.6,1864.2L956.6,1864.2z M111.6,1537.8c-3-7.2-9.8-4-9.8-4l2.6,295c0,2,2.8,15.5,9.8-4.3C136.5,1762.3,184.6,1684.6,111.6,1537.8L111.6,1537.8z M286.9,1773.6c-4.5,1.2-8.8,1.8-13,1.8c-4.1,0-7-1-8.8-3.1c-1.8-2.1-2.7-24.6-2.7-30.5v-4.3h21.1v-30.4h-21.1V1611h-31.5v95.9h-21.3v30.4h24.6v4.9c0,9.9,1,26.8,2.9,31.7c1.9,4.9,5.4,17.7,10.6,20.8c5.1,3.1,11.6,4.6,19.4,4.6c8,0,15.9-1.3,23.6-4L286.9,1773.6z M357.3,1611h-32.2v110.1h32.2L357.3,1611L357.3,1611z M357.3,1738h-32.2v30.7l32.2,0.3L357.3,1738L357.3,1738z M485.2,1611.7l-30.9,0v61.2c0,12.7-0.6,20.9-1.8,24.6c-1.2,3.7-3.2,6.6-5.9,8.7c-2.7,2.1-3.3,3.1-7.2,3.1c-4.9,0-6.6-1.5-10.5-4.4c-3.9-2.9-6.6-6.9-8-11.7c-1.4-4.9-0.8-13.8-0.8-27v-55.8H388V1733h26.2v-19.9c9.3,13.3,21,19.9,35.2,19.9c6.2,0,11.9-1.2,17.1-3.7c5.2-2.5,9.1-5.6,11.7-9.4c2.6-3.8,4.5-8.2,5.5-13.1c1-4.9,1.6-11.8,1.6-20.9L485.2,1611.7L485.2,1611.7L485.2,1611.7z M546.4,1610.4h-30.9v111.4h30.9V1610.4z M546.4,1737.7h-30.9v31.4h30.9V1737.7z M660.3,1622c-8.2-7.7-20.2-11.6-36.3-11.6c-14.5,0-27,0.3-35.5,6.8c-8.5,6.5-14,15.3-16.6,26.4l28.3,4.7c1.2-6,3.6-10.6,7.3-13.8c3.7-3.1,8.8-1.7,15.5-1.7c7.3,0,12.8,1.5,16.5,4.4c2.5,2.1,3.7,4.8,3.7,8.3c0,2.4-0.7,4.3-2,5.9c-1.4,1.5-4.5,6.8-9.4,8c-22.8,5.5-35.9,11.6-42,16.1c-8.4,6.3-12.7,10.2-12.7,21.5c0,10.2,2.3,25.6,9.6,32.6c7.3,6.9,18.6,10.4,33.9,10.4c14.6,0,25.4-2.6,32.6-7.8c7.1-5.2,12-13,14.7-23.2l-26.6-5.4c-1.1,4.6-3.3,8.1-6.5,10.5c-3.2,2.4-7.7,3.6-13.6,3.6c-7.4,0-12.8-1.1-16-3.4c-2.2-1.6-3.2-3.7-3.2-6.3c0-2.2,0.9-4.1,2.8-5.6c2.5-2.1,11.3-11.9,26.4-15.7c15-3.8,25.5-8.4,31.5-13.8c5.9-5.5,10.8-13.2,10.8-23.1C673.6,1638.9,668.5,1629.7,660.3,1622z M801.9,1610.4l-32.2,0v64.6c0,12.3-0.5,20.1-1.6,23.4c-1.1,3.3-3,6-5.7,7.9c-2.7,1.9-0.8,2.9-4.9,2.9c-4.7,0-8.9-1.3-12.5-3.8c-3.7-2.5-3.7-6.3-5.5-11.3c-1.7-5-2.6-12.5-2.6-22.4v-61.4h-32.2v173.9H737V1722c9.1,11.7,17.4,13.6,30,13.6c6.5,0,12.3-1.3,17.6-4c5.2-2.6,7.8-8.7,10.5-12.8c2.6-4.1,4.4-8.7,5.4-13.7c1-5,1.5-12.8,1.5-23.3L801.9,1610.4L801.9,1610.4z M888.4,1536.5c-61.2,146.8-44.7,177-2.6,288.1c7.1,19.8,9.8,6.2,9.8,4.3l2.6-296.3C898.2,1532.5,891.4,1529.2,888.4,1536.5L888.4,1536.5z"/></g></g>
</svg>